<svg width="138" height="131" viewBox="0 0 138 131" fill="none" xmlns="http://www.w3.org/2000/svg">
<g clip-path="url(#clip0_2217_120)">
<path fill-rule="evenodd" clip-rule="evenodd" d="M45.023 66.7181L44.8546 77.0108H63.5308C67.484 77.0108 70.7183 80.2294 70.7183 84.1632V91.3156H70.6397V119.299C70.6397 123.233 67.4053 126.452 63.4522 126.452H56.2647V93.9083C56.2647 90.9579 56.8262 91.3156 53.9625 91.3156H35.4659V91.2709H26.2457C20.2935 91.2709 15.4307 86.4318 15.4307 80.5088V45.2722C15.4307 39.2486 20.3834 34.3313 26.4254 34.3313H31.8721C39.5313 34.3313 41.1934 37.8852 43.0128 41.696L52.7496 46.3451C59.4093 49.329 57.691 49.9213 62.2056 44.3558L67.2369 38.1422L61.6554 34.8789C60.5997 35.0801 59.2745 34.9013 57.9942 34.309C55.6246 33.2026 54.2769 31.0793 54.9957 29.5706C55.7032 28.0618 58.2076 27.7266 60.5772 28.833C62.5987 29.7829 63.879 31.4704 63.7555 32.8785L69.1461 36.03C73.0318 33.5155 81.8365 38.0752 77.4342 44.9928L68.9215 56.5484C65.3726 61.365 60.6558 62.0468 54.9508 59.6775L45.023 56.2019V66.7181ZM137.36 63.8684H101.4L104.196 60.471C104.634 60.8063 105.129 61.0745 105.645 61.2756C106.274 61.5103 106.97 61.6444 107.678 61.6444C109.284 61.6444 110.733 60.9851 111.788 59.9234C112.844 58.8617 113.484 57.4089 113.484 55.7884C113.484 54.1792 112.833 52.7152 111.788 51.6535C110.733 50.5918 109.284 49.9324 107.678 49.9324C106.072 49.9324 104.623 50.5918 103.567 51.6535C102.613 52.6146 101.984 53.9221 101.883 55.3638C93.0782 55.3638 84.2623 55.3638 75.4576 55.3638C75.3341 55.3638 75.2105 55.4085 75.1095 55.4979C74.9073 55.6879 74.9073 56.0008 75.0982 56.2019L81.814 63.8572H67.046C66.6978 63.8572 66.4058 64.1478 66.4058 64.4942V73.6135C66.4058 73.9599 66.6978 74.2505 67.046 74.2505C79.2984 74.2505 85.2506 74.2505 97.5142 74.2505V130.128C97.5142 130.587 97.8961 130.966 98.3565 130.966H98.6822H98.7047H107.7H107.723H108.048C108.509 130.966 108.891 130.587 108.891 130.128V74.2505C116.977 74.2505 129.274 74.2505 137.36 74.2505C137.708 74.2505 138 73.9599 138 73.6135V64.4942C138 64.1478 137.708 63.8684 137.36 63.8684ZM1.9991 56.6154H7.24373C8.31062 56.6154 9.01814 57.4983 9.1866 58.5488C11.1744 70.976 12.2413 83.4144 12.1851 95.8417H48.0665C49.4815 95.8417 50.6383 96.9928 50.6383 98.4009V103.575H48.5831V130.039C48.5831 130.464 48.2237 130.821 47.797 130.821H40.9239C40.4971 130.821 40.1378 130.475 40.1378 130.039V118.528H10.7701C10.3433 122.037 9.8155 125.546 9.1866 129.055C8.99568 130.106 8.31062 130.989 7.24373 130.989H1.9991C0.932201 130.989 -0.246998 130.072 0.0562247 129.055C6.97419 105.106 5.52546 81.6934 0.0562247 58.5488C-0.202076 57.5095 0.920971 56.6154 1.9991 56.6154ZM40.1265 114.963V103.586H12.0728C11.9156 108.425 11.5787 110.124 11.0621 114.974H40.1265V114.963ZM31.524 0C39.8345 0 46.5728 6.70534 46.5728 14.9753C46.5728 23.2452 39.8345 29.9505 31.524 29.9505C23.2135 29.9505 16.4752 23.2452 16.4752 14.9753C16.4864 6.70534 23.2247 0 31.524 0Z" fill="#88EBAA"/>
</g>
<defs>
<clipPath id="clip0_2217_120">
<rect width="138" height="131" fill="white"/>
</clipPath>
</defs>
</svg>
