<svg width="178" height="124" viewBox="0 0 178 124" fill="none" xmlns="http://www.w3.org/2000/svg">
<g clip-path="url(#clip0_2217_118)">
<path fill-rule="evenodd" clip-rule="evenodd" d="M66.3154 0.881588H7.85123C6.90347 0.885392 5.99562 1.26262 5.32544 1.93109C4.65527 2.59956 4.27708 3.5051 4.27327 4.45045V44.0981H3.92561C2.88315 44.1019 1.88469 44.5177 1.1489 45.2543C0.413116 45.9909 -1.52588e-05 46.9884 0 48.0282V52.3628C0.0038147 53.4193 0.426254 54.4314 1.17522 55.1785C1.92416 55.9255 2.93886 56.3469 3.99803 56.3507H31.6222C11.096 58.1713 -0.637375 77.2149 0.63736 101.98H18.9038C19.2238 107.503 21.6487 112.694 25.6817 116.491C29.7146 120.288 35.0504 122.403 40.5961 122.403C46.1418 122.403 51.4776 120.288 55.5106 116.491C59.5435 112.694 61.9684 107.503 62.2884 101.98H117.334C117.334 101.59 117.334 101.2 117.334 100.824C117.299 103.626 117.463 106.426 117.826 109.205L129.285 103.815C129.608 107.35 130.781 110.755 132.704 113.742C134.626 116.729 137.242 119.21 140.33 120.975C143.417 122.74 146.886 123.737 150.442 123.881C153.997 124.025 157.536 123.313 160.757 121.804C163.978 120.295 166.787 118.034 168.947 115.212C171.106 112.391 172.552 109.092 173.162 105.595C173.772 102.098 173.529 98.5056 172.452 95.1223C171.375 91.739 169.497 88.6644 166.976 86.1587L178 80.9138C168.816 70.4961 157.72 66.1181 144.321 69.1235C139.526 70.3372 135.035 71.4209 144.437 69.1235C142.108 51.6613 136.947 34.6934 129.154 18.8849L135.992 18.7837C137.44 18.7837 138.961 19.1449 139.932 18.4369C140.794 18.3745 141.627 18.0988 142.355 17.6346C143.084 17.1704 143.684 16.5324 144.104 15.7783C145.091 14.1241 145.592 12.2268 145.552 10.3022C145.592 8.37312 145.09 6.47131 144.104 4.81167C143.445 3.69521 142.423 2.83823 141.206 2.38427C141.228 2.2406 141.228 2.09447 141.206 1.9508C139.598 -0.664439 136.426 0.115799 133.601 0.115799L130.849 0.289185C128.809 0.568143 126.842 1.23524 125.055 2.25423L121.911 4.01699H119.362L110.786 5.66416C107.991 6.21321 107.585 5.98203 108.237 9.40641C108.326 9.84665 108.442 10.281 108.585 10.7068C109.425 13.2065 110.033 12.2817 112.699 11.7471L120.709 10.1144C120.405 13.3365 121.433 17.3388 122.868 21.8902C118.276 25.777 116.19 31.3109 119.347 38.622L126.996 62.1303C114.162 71.2041 106.455 79.4689 106.006 92.8919H89.7388C79.2801 84.9883 81.0474 70.9152 92.4911 61.928V56.3507V47.9126C92.4911 45.2251 91.0425 44.0114 88.3626 44.0981H69.8934V4.45045C69.8896 3.5051 69.5114 2.59956 68.8412 1.93109C68.171 1.26262 67.2632 0.885392 66.3154 0.881588ZM142.713 97.5733L153.65 92.4728C155.618 92.9314 157.394 93.9896 158.731 95.5005C160.069 97.0115 160.902 98.9003 161.115 100.905C161.328 102.91 160.91 104.931 159.92 106.688C158.929 108.445 157.415 109.85 155.587 110.71C153.759 111.57 151.708 111.841 149.719 111.485C147.729 111.13 145.9 110.166 144.485 108.726C143.07 107.287 142.139 105.444 141.822 103.454C141.504 101.463 141.816 99.4228 142.713 97.6166V97.5733ZM141.119 4.72498C140.989 8.38054 140.757 13.0764 140.583 16.2841C140.925 15.9799 141.222 15.6298 141.467 15.2437C142.354 13.729 142.8 11.9979 142.756 10.2444C142.8 8.49548 142.354 6.769 141.467 5.25959C141.351 5.0862 141.235 4.91282 141.119 4.76833V4.72498ZM35.7217 7.02235C34.8511 7.02628 34.0176 7.37442 33.404 7.99042C32.8853 8.51538 32.5546 9.1962 32.4629 9.92754C32.3713 10.6589 32.5238 11.4 32.897 12.0361C31.1924 12.292 29.5306 12.7781 27.9574 13.481C20.7145 17.0932 16.7454 22.7427 16.7454 31.1375C16.7448 31.3822 16.837 31.6181 17.0036 31.7977C17.1703 31.9773 17.3989 32.0873 17.6436 32.1055H53.7563C53.8831 32.1056 54.0086 32.0804 54.1256 32.0316C54.2425 31.9828 54.3486 31.9112 54.4376 31.8211C54.5265 31.7311 54.5966 31.6242 54.6438 31.5068C54.691 31.3895 54.7143 31.2639 54.7124 31.1375C54.8276 27.4155 53.8207 23.7446 51.8219 20.5995C49.8231 17.4544 46.9244 14.9797 43.5005 13.4954C41.9304 12.7842 40.2674 12.2978 38.5609 12.0505C38.9364 11.4151 39.0904 10.6735 38.9987 9.94152C38.9069 9.20957 38.5747 8.52855 38.0539 8.00487C37.4358 7.38667 36.597 7.03848 35.7217 7.0368V7.02235ZM58.696 37.6973V34.9953C58.6979 34.9581 58.6923 34.9208 58.6793 34.8858C58.6664 34.8508 58.6464 34.8188 58.6207 34.7918C58.5949 34.7647 58.5639 34.7432 58.5295 34.7285C58.4951 34.7138 58.4581 34.7063 58.4207 34.7063H13.1675C13.1301 34.7063 13.0931 34.7138 13.0587 34.7285C13.0243 34.7432 12.9933 34.7647 12.9675 34.7918C12.9418 34.8188 12.9218 34.8508 12.9089 34.8858C12.8959 34.9208 12.8903 34.9581 12.8922 34.9953V37.6973C12.8922 37.7701 12.9212 37.8399 12.9729 37.8914C13.0245 37.9429 13.0945 37.9718 13.1675 37.9718H58.4207C58.4937 37.9718 58.5637 37.9429 58.6153 37.8914C58.667 37.8399 58.696 37.7701 58.696 37.6973ZM31.0428 102.009C31.139 104.472 32.1876 106.802 33.9686 108.511C35.7497 110.22 38.1249 111.174 40.5961 111.174C43.0673 111.174 45.4425 110.22 47.2236 108.511C49.0047 106.802 50.0532 104.472 50.1494 102.009H31.0428Z" fill="#88EBAA"/>
</g>
<defs>
<clipPath id="clip0_2217_118">
<rect width="178" height="124" fill="white" transform="matrix(-1 0 0 1 178 0)"/>
</clipPath>
</defs>
</svg>
