<svg width="153" height="153" viewBox="0 0 153 153" fill="none" xmlns="http://www.w3.org/2000/svg">
<path d="M114.75 105.188H55.092L42.84 115.646L30.588 105.188H4.78125V112.359C4.78125 121.501 11.0955 128.947 18.9039 129.094C19.63 133.612 21.3871 137.694 24.0318 140.888C27.9434 145.613 33.6301 148.219 40.043 148.219H79.4883C85.9011 148.219 91.5878 145.613 95.4995 140.883C98.1441 137.688 99.9012 133.606 100.627 129.088C104.775 129.013 108.502 126.876 111.086 123.521C113.501 120.304 114.788 116.381 114.75 112.359V105.188ZM31.377 95.625L42.831 104.049L54.3867 95.625H114.75V93.2344C114.747 90.4799 113.794 87.8107 112.052 85.6769C110.31 83.5431 107.886 82.0751 105.188 81.5203C104.942 72.6481 101.303 65.2222 94.5761 60.0047C88.3545 55.1517 80.0411 52.5938 70.5234 52.5938H49.0078C28.6218 52.5938 14.8129 64.1793 14.3438 81.5203C11.6457 82.0751 9.22135 83.5431 7.47946 85.6769C5.73756 87.8107 4.78462 90.4799 4.78125 93.2344V95.625H31.377Z" fill="#88EBAA"/>
<path d="M138.381 28.6875H116.092L118.757 18.0313L132.082 13.4473L129.094 4.78125L110.566 10.7578L106.236 28.6875H62.1562V38.25H67.7593L68.3151 43.0312H70.5234C82.1777 43.0312 92.5351 46.2885 100.442 52.4503C104.84 55.839 108.405 60.1881 110.865 65.1655C112.381 68.2533 113.46 71.537 114.072 74.9222C118.525 77.6638 121.827 81.9333 123.36 86.9325C124.894 91.9317 124.555 97.3184 122.406 102.086C123.665 105.365 124.311 108.847 124.312 112.359C124.312 119.035 122.041 125.397 117.918 130.274C115.366 133.314 112.097 135.671 108.406 137.132C107.148 140.717 105.274 144.054 102.869 146.994C102.516 147.418 102.154 147.833 101.784 148.234H124.312C129.094 148.234 131.186 145.843 131.783 141.361L142.661 38.2649H148.219V28.6875H138.381Z" fill="#88EBAA"/>
</svg>
