<svg width="37" height="37" viewBox="0 0 37 37" fill="none" xmlns="http://www.w3.org/2000/svg">
<path d="M30.9104 16.9585H6.08958C5.28072 16.9585 4.625 17.6142 4.625 18.4231V18.5772C4.625 19.3861 5.28072 20.0418 6.08958 20.0418H30.9104C31.7193 20.0418 32.375 19.3861 32.375 18.5772V18.4231C32.375 17.6142 31.7193 16.9585 30.9104 16.9585Z" fill="white"/>
<path d="M30.9104 24.6665H6.08958C5.28072 24.6665 4.625 25.3222 4.625 26.1311V26.2853C4.625 27.0941 5.28072 27.7498 6.08958 27.7498H30.9104C31.7193 27.7498 32.375 27.0941 32.375 26.2853V26.1311C32.375 25.3222 31.7193 24.6665 30.9104 24.6665Z" fill="white"/>
<path d="M30.9104 9.25H6.08958C5.28072 9.25 4.625 9.90572 4.625 10.7146V10.8688C4.625 11.6776 5.28072 12.3333 6.08958 12.3333H30.9104C31.7193 12.3333 32.375 11.6776 32.375 10.8688V10.7146C32.375 9.90572 31.7193 9.25 30.9104 9.25Z" fill="white"/>
</svg>
